<svg width="40" height="40" viewBox="0 0 40 40" fill="none" xmlns="http://www.w3.org/2000/svg">
<path d="M20 4C24.2435 4 28.3131 5.68571 31.3137 8.68629C34.3143 11.6869 36 15.7565 36 20C36 24.2435 34.3143 28.3131 31.3137 31.3137C28.3131 34.3143 24.2435 36 20 36C15.7565 36 11.6869 34.3143 8.68629 31.3137C5.68571 28.3131 4 24.2435 4 20C4 15.7565 5.68571 11.6869 8.68629 8.68629C11.6869 5.68571 15.7565 4 20 4ZM15.62 14.228C15.4274 14.0949 15.1942 14.0336 14.961 14.0548C14.7278 14.076 14.5095 14.1783 14.344 14.344L14.228 14.482C14.0949 14.6746 14.0336 14.9078 14.0548 15.141C14.076 15.3742 14.1783 15.5925 14.344 15.758L18.584 20L14.344 24.242L14.228 24.382C14.0954 24.5744 14.0344 24.8072 14.0556 25.04C14.0768 25.2727 14.1789 25.4907 14.344 25.656L14.482 25.772C14.6746 25.9051 14.9078 25.9664 15.141 25.9452C15.3742 25.924 15.5925 25.8217 15.758 25.656L20 21.416L24.242 25.656L24.382 25.772C24.5744 25.9046 24.8072 25.9656 25.04 25.9444C25.2727 25.9232 25.4907 25.8211 25.656 25.656L25.772 25.518C25.9051 25.3254 25.9664 25.0922 25.9452 24.859C25.924 24.6258 25.8217 24.4075 25.656 24.242L21.416 20L25.656 15.758L25.772 15.618C25.9046 15.4256 25.9656 15.1928 25.9444 14.96C25.9232 14.7273 25.8211 14.5093 25.656 14.344L25.518 14.228C25.3254 14.0949 25.0922 14.0336 24.859 14.0548C24.6258 14.076 24.4075 14.1783 24.242 14.344L20 18.584L15.758 14.344L15.62 14.228Z" fill="black"/>
</svg>
