<svg xmlns="http://www.w3.org/2000/svg" height="40" viewBox="0 -960 960 960" width="40"><path d="M440-280q-7 0-12-4t-7-10q-14-42-34-70t-40-54q-20-26-33.5-54T300-540q0-58 41-99t99-41q58 0 99 41t41 99q0 40-13.5 68T533-418q-20 26-40 54t-34 70q-2 6-7 10t-12 4Zm0-112q9-14 18-26t17-23q23-30 34-50t11-49q0-33-23.5-56.5T440-620q-33 0-56.5 23.5T360-540q0 29 11 49t34 50q8 11 17 23t18 26Zm0-98q21 0 35.5-14.5T490-540q0-21-14.5-35.5T440-590q-21 0-35.5 14.5T390-540q0 21 14.5 35.5T440-490Zm2 372.667q-151.333 0-257-105.667T79.333-480q0-75.667 28.5-141.5t77.667-115q49.167-49.167 115-77.667t141.5-28.5q75.667 0 141.5 28.5t115 77.667q49.167 49.167 77.667 115t28.5 141.5v14.667L869-530l47 46.666-144.666 144.667-144.667-144.667 47-46.666 64.334 64.334V-480q0-122-87.001-209-87-87-209-87t-209 87q-87 87-87 209 .333 122 87.166 209Q320-184 442-184q57 0 109.333-21.5Q603.667-227 643-264l47.667 47.667q-48.334 46-113.167 72.5t-135.5 26.5ZM440-540Z"/></svg>